<svg width="50" height="50" viewBox="0 0 50 50" fill="none" xmlns="http://www.w3.org/2000/svg">
<g clip-path="url(#clip0_1_13)">
<path d="M45.8333 14.5834H31.25V10.4167H45.8333V14.5834ZM49.4292 35.4167C48.5083 38.1188 45.2021 41.6667 38.8021 41.6667C32.3979 41.6667 27.2104 38.0646 27.2104 29.8438C27.2104 21.6979 32.0542 17.5104 38.5979 17.5104C45.0188 17.5104 48.9396 21.2229 49.7958 26.7313C49.9583 27.7854 50.0229 29.2063 49.9938 31.1896H33.2708C33.5417 37.8792 40.5271 38.0896 42.8292 35.4167H49.4292ZM33.4167 27.0834H43.7604C43.5417 23.8604 41.3938 22.4604 38.6 22.4604C35.5458 22.4604 33.8563 24.0604 33.4167 27.0834ZM13.4708 41.6417H0V10.4604H14.4854C25.8938 10.6292 26.1104 21.8021 20.1521 24.8479C27.3625 27.4729 27.6042 41.6417 13.4708 41.6417V41.6417ZM6.25 22.9167H13.7167C18.9417 22.9167 19.7708 16.6667 13.0667 16.6667H6.25V22.9167ZM13.3146 29.1667H6.25V35.45H13.2104C19.575 35.45 19.1854 29.1667 13.3146 29.1667V29.1667Z" fill="black"/>
</g>
<defs>
<clipPath id="clip0_1_13">
<rect width="50" height="50" fill="white"/>
</clipPath>
</defs>
</svg>
