<svg width="673" height="499" viewBox="0 0 673 499" fill="none" xmlns="http://www.w3.org/2000/svg">
<g clip-path="url(#clip0_1_19)">
<path d="M399.594 87.9679C412.451 87.9679 422.873 77.5439 422.873 64.6852C422.873 51.8266 412.451 41.4026 399.594 41.4026C386.737 41.4026 376.314 51.8266 376.314 64.6852C376.314 77.5439 386.737 87.9679 399.594 87.9679Z" fill="#FFB800"/>
<path d="M580.18 433.509C614.782 407.15 631.309 362.856 620.962 320.602C620.705 319.552 620.434 318.505 620.148 317.46C613.289 292.379 596.319 268.541 571.585 260.527C550.818 253.798 528.15 258.972 506.484 256.296C463.953 251.043 430.98 216.626 407.779 180.591C384.578 144.556 366.748 104.22 335.919 74.4497C285.102 25.3784 202.208 14.8133 139.203 46.755C76.198 78.6969 36.0645 149.562 37.7761 220.189C39.4877 290.815 81.4097 358.339 142.291 394.164C164.656 407.325 190.523 416.649 216.267 413.386C238.604 410.555 258.9 398.552 281.132 394.988C316.086 389.385 350.818 405.191 381.05 423.61C411.283 442.028 440.485 463.86 474.841 472.399C508.199 480.69 549.528 456.859 580.18 433.509Z" fill="#D5FFD9"/>
<path d="M530.465 48.2382C529.706 47.7324 528.939 47.2528 528.18 46.7645C506.254 32.7393 482.752 21.3454 458.161 12.8181L452.459 91.4886H416.311V1.33409C414.036 0.863218 411.743 0.418507 409.45 -4.57764e-05V91.4886H366.493C342.845 91.4886 320.165 82.0931 303.444 65.369C286.722 48.645 277.328 25.9622 277.328 2.31081C275.026 2.80785 272.742 3.33968 270.457 3.90647V91.4886H235.469L230.038 16.4718C204.767 26.165 180.775 38.9121 158.597 54.4293C158.214 54.6909 157.83 54.9612 157.455 55.2228C155.528 56.5743 153.628 57.9521 151.736 59.3473V359.476H254.851L253.029 334.232L243.002 195.63H444.917L434.891 334.232L433.069 359.476H535.042V51.2727C533.525 50.2437 531.999 49.2322 530.465 48.2382ZM270.457 172.74H241.346L235.966 98.3598H270.457V172.74ZM409.45 172.74H360.556V171.266C360.556 170.558 360.416 169.857 360.145 169.202C359.874 168.548 359.476 167.953 358.975 167.453C358.473 166.952 357.878 166.556 357.224 166.285C356.569 166.015 355.867 165.876 355.159 165.878H333.903C333.195 165.877 332.495 166.017 331.841 166.287C331.187 166.558 330.593 166.955 330.092 167.455C329.592 167.956 329.195 168.55 328.924 169.204C328.654 169.858 328.515 170.559 328.515 171.266V172.74H277.328V98.3598H409.45V172.74ZM416.312 172.74V98.3598H451.962L446.583 172.74H416.312Z" fill="#A1E8A9"/>
<path d="M-3.05176e-05 378.695C7.57407 387.671 15.7663 396.106 24.5168 403.939L661.483 404.811C670.234 396.978 678.426 388.543 686 379.567L-3.05176e-05 378.695Z" fill="#3F3D56"/>
<path d="M431.948 297.862V372.595C431.948 373.547 432.327 374.46 433 375.134C433.674 375.807 434.587 376.186 435.539 376.187H546.269C547.222 376.186 548.135 375.807 548.808 375.134C549.481 374.46 549.86 373.547 549.861 372.595V297.862C549.858 296.911 549.479 295.999 548.806 295.327C548.133 294.654 547.221 294.276 546.269 294.275H435.539C434.587 294.276 433.675 294.654 433.002 295.327C432.329 295.999 431.95 296.911 431.948 297.862V297.862Z" fill="#3F3D56"/>
<path d="M434.545 298.792V371.673C434.546 372.182 434.749 372.67 435.108 373.029C435.468 373.389 435.956 373.592 436.465 373.593H545.348C545.856 373.592 546.344 373.389 546.704 373.029C547.064 372.67 547.266 372.182 547.267 371.673V298.792C547.267 298.283 547.065 297.794 546.705 297.434C546.345 297.073 545.857 296.87 545.348 296.869H436.465C435.955 296.87 435.467 297.073 435.107 297.434C434.747 297.794 434.545 298.283 434.545 298.792V298.792Z" fill="#6C63FF"/>
<path d="M429.632 387.17C429.835 387.424 430.092 387.629 430.386 387.77C430.679 387.91 431.001 387.982 431.326 387.981H549.893C550.217 387.98 550.537 387.908 550.83 387.768C551.122 387.628 551.38 387.425 551.584 387.173C551.789 386.921 551.934 386.627 552.01 386.312C552.087 385.997 552.092 385.668 552.025 385.351L550.185 376.607C550.108 376.251 549.944 375.919 549.707 375.642C549.47 375.365 549.167 375.152 548.826 375.022C548.58 374.925 548.317 374.876 548.052 374.876H433.159C432.894 374.876 432.632 374.925 432.385 375.022C432.044 375.152 431.742 375.365 431.504 375.642C431.267 375.919 431.103 376.251 431.027 376.607L429.186 385.351C429.121 385.668 429.127 385.996 429.204 386.311C429.281 386.625 429.427 386.919 429.632 387.17V387.17Z" fill="#2F2E41"/>
<path d="M543.984 378.642H546.784C547.019 378.642 547.21 378.452 547.21 378.217V376.877C547.21 376.641 547.019 376.451 546.784 376.451H543.984C543.749 376.451 543.558 376.641 543.558 376.877V378.217C543.558 378.452 543.749 378.642 543.984 378.642Z" fill="#3F3D56"/>
<path d="M536.68 378.642H539.481C539.716 378.642 539.906 378.452 539.906 378.217V376.877C539.906 376.641 539.716 376.451 539.481 376.451H536.68C536.445 376.451 536.255 376.641 536.255 376.877V378.217C536.255 378.452 536.445 378.642 536.68 378.642Z" fill="#3F3D56"/>
<path d="M529.377 378.642H532.177C532.412 378.642 532.603 378.452 532.603 378.217V376.877C532.603 376.641 532.412 376.451 532.177 376.451H529.377C529.142 376.451 528.951 376.641 528.951 376.877V378.217C528.951 378.452 529.142 378.642 529.377 378.642Z" fill="#3F3D56"/>
<path d="M522.073 378.642H524.874C525.109 378.642 525.299 378.452 525.299 378.217V376.877C525.299 376.641 525.109 376.451 524.874 376.451H522.073C521.838 376.451 521.647 376.641 521.647 376.877V378.217C521.647 378.452 521.838 378.642 522.073 378.642Z" fill="#3F3D56"/>
<path d="M514.769 378.642H517.57C517.805 378.642 517.996 378.452 517.996 378.217V376.877C517.996 376.641 517.805 376.451 517.57 376.451H514.769C514.534 376.451 514.344 376.641 514.344 376.877V378.217C514.344 378.452 514.534 378.642 514.769 378.642Z" fill="#3F3D56"/>
<path d="M507.466 378.642H510.266C510.501 378.642 510.692 378.452 510.692 378.217V376.877C510.692 376.641 510.501 376.451 510.266 376.451H507.466C507.231 376.451 507.04 376.641 507.04 376.877V378.217C507.04 378.452 507.231 378.642 507.466 378.642Z" fill="#3F3D56"/>
<path d="M500.162 378.642H502.963C503.198 378.642 503.388 378.452 503.388 378.217V376.877C503.388 376.641 503.198 376.451 502.963 376.451H500.162C499.927 376.451 499.737 376.641 499.737 376.877V378.217C499.737 378.452 499.927 378.642 500.162 378.642Z" fill="#3F3D56"/>
<path d="M492.859 378.642H495.659C495.894 378.642 496.085 378.452 496.085 378.217V376.877C496.085 376.641 495.894 376.451 495.659 376.451H492.859C492.624 376.451 492.433 376.641 492.433 376.877V378.217C492.433 378.452 492.624 378.642 492.859 378.642Z" fill="#3F3D56"/>
<path d="M485.555 378.642H488.356C488.591 378.642 488.781 378.452 488.781 378.217V376.877C488.781 376.641 488.591 376.451 488.356 376.451H485.555C485.32 376.451 485.129 376.641 485.129 376.877V378.217C485.129 378.452 485.32 378.642 485.555 378.642Z" fill="#3F3D56"/>
<path d="M478.252 378.642H481.052C481.287 378.642 481.478 378.452 481.478 378.217V376.877C481.478 376.641 481.287 376.451 481.052 376.451H478.252C478.016 376.451 477.826 376.641 477.826 376.877V378.217C477.826 378.452 478.016 378.642 478.252 378.642Z" fill="#3F3D56"/>
<path d="M470.948 378.642H473.748C473.984 378.642 474.174 378.452 474.174 378.217V376.877C474.174 376.641 473.984 376.451 473.748 376.451H470.948C470.713 376.451 470.522 376.641 470.522 376.877V378.217C470.522 378.452 470.713 378.642 470.948 378.642Z" fill="#3F3D56"/>
<path d="M463.644 378.642H466.445C466.68 378.642 466.871 378.452 466.871 378.217V376.877C466.871 376.641 466.68 376.451 466.445 376.451H463.644C463.409 376.451 463.219 376.641 463.219 376.877V378.217C463.219 378.452 463.409 378.642 463.644 378.642Z" fill="#3F3D56"/>
<path d="M456.341 378.642H459.141C459.376 378.642 459.567 378.452 459.567 378.217V376.877C459.567 376.641 459.376 376.451 459.141 376.451H456.341C456.106 376.451 455.915 376.641 455.915 376.877V378.217C455.915 378.452 456.106 378.642 456.341 378.642Z" fill="#3F3D56"/>
<path d="M449.037 378.642H451.838C452.073 378.642 452.263 378.452 452.263 378.217V376.877C452.263 376.641 452.073 376.451 451.838 376.451H449.037C448.802 376.451 448.612 376.641 448.612 376.877V378.217C448.612 378.452 448.802 378.642 449.037 378.642Z" fill="#3F3D56"/>
<path d="M441.734 378.642H444.534C444.769 378.642 444.96 378.452 444.96 378.217V376.877C444.96 376.641 444.769 376.451 444.534 376.451H441.734C441.499 376.451 441.308 376.641 441.308 376.877V378.217C441.308 378.452 441.499 378.642 441.734 378.642Z" fill="#3F3D56"/>
<path d="M434.43 378.642H437.23C437.466 378.642 437.656 378.452 437.656 378.217V376.877C437.656 376.641 437.466 376.451 437.23 376.451H434.43C434.195 376.451 434.004 376.641 434.004 376.877V378.217C434.004 378.452 434.195 378.642 434.43 378.642Z" fill="#3F3D56"/>
<path d="M544.07 382.295H546.871C547.106 382.295 547.296 382.104 547.296 381.869V380.529C547.296 380.294 547.106 380.103 546.871 380.103H544.07C543.835 380.103 543.644 380.294 543.644 380.529V381.869C543.644 382.104 543.835 382.295 544.07 382.295Z" fill="#3F3D56"/>
<path d="M536.767 382.295H539.567C539.802 382.295 539.993 382.104 539.993 381.869V380.529C539.993 380.294 539.802 380.103 539.567 380.103H536.767C536.531 380.103 536.341 380.294 536.341 380.529V381.869C536.341 382.104 536.531 382.295 536.767 382.295Z" fill="#3F3D56"/>
<path d="M529.463 382.295H532.263C532.499 382.295 532.689 382.104 532.689 381.869V380.529C532.689 380.294 532.499 380.103 532.263 380.103H529.463C529.228 380.103 529.037 380.294 529.037 380.529V381.869C529.037 382.104 529.228 382.295 529.463 382.295Z" fill="#3F3D56"/>
<path d="M522.159 382.295H524.96C525.195 382.295 525.385 382.104 525.385 381.869V380.529C525.385 380.294 525.195 380.103 524.96 380.103H522.159C521.924 380.103 521.734 380.294 521.734 380.529V381.869C521.734 382.104 521.924 382.295 522.159 382.295Z" fill="#3F3D56"/>
<path d="M514.856 382.295H517.656C517.891 382.295 518.082 382.104 518.082 381.869V380.529C518.082 380.294 517.891 380.103 517.656 380.103H514.856C514.621 380.103 514.43 380.294 514.43 380.529V381.869C514.43 382.104 514.621 382.295 514.856 382.295Z" fill="#3F3D56"/>
<path d="M507.552 382.295H510.353C510.588 382.295 510.778 382.104 510.778 381.869V380.529C510.778 380.294 510.588 380.103 510.353 380.103H507.552C507.317 380.103 507.127 380.294 507.127 380.529V381.869C507.127 382.104 507.317 382.295 507.552 382.295Z" fill="#3F3D56"/>
<path d="M500.249 382.295H503.049C503.284 382.295 503.475 382.104 503.475 381.869V380.529C503.475 380.294 503.284 380.103 503.049 380.103H500.249C500.014 380.103 499.823 380.294 499.823 380.529V381.869C499.823 382.104 500.014 382.295 500.249 382.295Z" fill="#3F3D56"/>
<path d="M492.945 382.295H495.745C495.981 382.295 496.171 382.104 496.171 381.869V380.529C496.171 380.294 495.981 380.103 495.745 380.103H492.945C492.71 380.103 492.519 380.294 492.519 380.529V381.869C492.519 382.104 492.71 382.295 492.945 382.295Z" fill="#3F3D56"/>
<path d="M485.641 382.295H488.442C488.677 382.295 488.868 382.104 488.868 381.869V380.529C488.868 380.294 488.677 380.103 488.442 380.103H485.641C485.406 380.103 485.216 380.294 485.216 380.529V381.869C485.216 382.104 485.406 382.295 485.641 382.295Z" fill="#3F3D56"/>
<path d="M478.338 382.295H481.138C481.373 382.295 481.564 382.104 481.564 381.869V380.529C481.564 380.294 481.373 380.103 481.138 380.103H478.338C478.103 380.103 477.912 380.294 477.912 380.529V381.869C477.912 382.104 478.103 382.295 478.338 382.295Z" fill="#3F3D56"/>
<path d="M471.034 382.295H473.835C474.07 382.295 474.26 382.104 474.26 381.869V380.529C474.26 380.294 474.07 380.103 473.835 380.103H471.034C470.799 380.103 470.609 380.294 470.609 380.529V381.869C470.609 382.104 470.799 382.295 471.034 382.295Z" fill="#3F3D56"/>
<path d="M463.731 382.295H466.531C466.766 382.295 466.957 382.104 466.957 381.869V380.529C466.957 380.294 466.766 380.103 466.531 380.103H463.731C463.496 380.103 463.305 380.294 463.305 380.529V381.869C463.305 382.104 463.496 382.295 463.731 382.295Z" fill="#3F3D56"/>
<path d="M456.427 382.295H459.228C459.463 382.295 459.653 382.104 459.653 381.869V380.529C459.653 380.294 459.463 380.103 459.228 380.103H456.427C456.192 380.103 456.001 380.294 456.001 380.529V381.869C456.001 382.104 456.192 382.295 456.427 382.295Z" fill="#3F3D56"/>
<path d="M449.123 382.295H451.924C452.159 382.295 452.35 382.104 452.35 381.869V380.529C452.35 380.294 452.159 380.103 451.924 380.103H449.123C448.888 380.103 448.698 380.294 448.698 380.529V381.869C448.698 382.104 448.888 382.295 449.123 382.295Z" fill="#3F3D56"/>
<path d="M441.82 382.295H444.62C444.855 382.295 445.046 382.104 445.046 381.869V380.529C445.046 380.294 444.855 380.103 444.62 380.103H441.82C441.585 380.103 441.394 380.294 441.394 380.529V381.869C441.394 382.104 441.585 382.295 441.82 382.295Z" fill="#3F3D56"/>
<path d="M434.516 382.295H437.317C437.552 382.295 437.742 382.104 437.742 381.869V380.529C437.742 380.294 437.552 380.103 437.317 380.103H434.516C434.281 380.103 434.091 380.294 434.091 380.529V381.869C434.091 382.104 434.281 382.295 434.516 382.295Z" fill="#3F3D56"/>
<path d="M483.45 386.677H511.813C512.049 386.677 512.239 386.487 512.239 386.252V384.912C512.239 384.677 512.049 384.486 511.813 384.486H483.45C483.215 384.486 483.025 384.677 483.025 384.912V386.252C483.025 386.487 483.215 386.677 483.45 386.677Z" fill="#3F3D56"/>
<path d="M453.401 312.813H450.921C450.17 312.813 449.56 313.423 449.56 314.174C449.56 314.926 450.17 315.536 450.921 315.536H453.401C454.152 315.536 454.762 314.926 454.762 314.174C454.762 313.423 454.152 312.813 453.401 312.813Z" fill="white"/>
<path d="M481.756 312.813H479.277C478.525 312.813 477.916 313.423 477.916 314.174C477.916 314.926 478.525 315.536 479.277 315.536H481.756C482.508 315.536 483.117 314.926 483.117 314.174C483.117 313.423 482.508 312.813 481.756 312.813Z" fill="white"/>
<path d="M489.79 312.813H487.311C486.559 312.813 485.95 313.423 485.95 314.174C485.95 314.926 486.559 315.536 487.311 315.536H489.79C490.542 315.536 491.151 314.926 491.151 314.174C491.151 313.423 490.542 312.813 489.79 312.813Z" fill="white"/>
<path d="M474.043 312.586H458.634C457.882 312.586 457.273 313.196 457.273 313.947C457.273 314.699 457.882 315.309 458.634 315.309H474.043C474.795 315.309 475.404 314.699 475.404 313.947C475.404 313.196 474.795 312.586 474.043 312.586Z" fill="white"/>
<path d="M511.851 312.586H496.442C495.69 312.586 495.081 313.196 495.081 313.947C495.081 314.699 495.69 315.309 496.442 315.309H511.851C512.603 315.309 513.212 314.699 513.212 313.947C513.212 313.196 512.603 312.586 511.851 312.586Z" fill="white"/>
<path d="M460.962 318.958H458.483C457.731 318.958 457.122 319.567 457.122 320.319C457.122 321.071 457.731 321.68 458.483 321.68H460.962C461.714 321.68 462.323 321.071 462.323 320.319C462.323 319.567 461.714 318.958 460.962 318.958Z" fill="white"/>
<path d="M489.318 318.958H486.838C486.087 318.958 485.477 319.567 485.477 320.319C485.477 321.071 486.087 321.68 486.838 321.68H489.318C490.069 321.68 490.679 321.071 490.679 320.319C490.679 319.567 490.069 318.958 489.318 318.958Z" fill="white"/>
<path d="M497.352 318.958H494.872C494.121 318.958 493.511 319.567 493.511 320.319C493.511 321.071 494.121 321.68 494.872 321.68H497.352C498.103 321.68 498.713 321.071 498.713 320.319C498.713 319.567 498.103 318.958 497.352 318.958Z" fill="white"/>
<path d="M481.605 318.731H466.196C465.444 318.731 464.834 319.34 464.834 320.092C464.834 320.844 465.444 321.453 466.196 321.453H481.605C482.357 321.453 482.966 320.844 482.966 320.092C482.966 319.34 482.357 318.731 481.605 318.731Z" fill="white"/>
<path d="M519.412 318.731H504.003C503.251 318.731 502.642 319.34 502.642 320.092C502.642 320.844 503.251 321.453 504.003 321.453H519.412C520.164 321.453 520.773 320.844 520.773 320.092C520.773 319.34 520.164 318.731 519.412 318.731Z" fill="white"/>
<path d="M468.524 325.102H466.044C465.293 325.102 464.683 325.712 464.683 326.464C464.683 327.215 465.293 327.825 466.044 327.825H468.524C469.275 327.825 469.885 327.215 469.885 326.464C469.885 325.712 469.275 325.102 468.524 325.102Z" fill="white"/>
<path d="M496.879 325.102H494.4C493.648 325.102 493.039 325.712 493.039 326.464C493.039 327.215 493.648 327.825 494.4 327.825H496.879C497.631 327.825 498.24 327.215 498.24 326.464C498.24 325.712 497.631 325.102 496.879 325.102Z" fill="white"/>
<path d="M504.913 325.102H502.434C501.682 325.102 501.073 325.712 501.073 326.464C501.073 327.215 501.682 327.825 502.434 327.825H504.913C505.665 327.825 506.274 327.215 506.274 326.464C506.274 325.712 505.665 325.102 504.913 325.102Z" fill="white"/>
<path d="M489.166 324.875H473.757C473.005 324.875 472.396 325.485 472.396 326.237C472.396 326.988 473.005 327.598 473.757 327.598H489.166C489.918 327.598 490.527 326.988 490.527 326.237C490.527 325.485 489.918 324.875 489.166 324.875Z" fill="white"/>
<path d="M526.974 324.875H511.565C510.813 324.875 510.203 325.485 510.203 326.237C510.203 326.988 510.813 327.598 511.565 327.598H526.974C527.726 327.598 528.335 326.988 528.335 326.237C528.335 325.485 527.726 324.875 526.974 324.875Z" fill="white"/>
<path d="M476.085 331.247H473.606C472.854 331.247 472.245 331.856 472.245 332.608C472.245 333.36 472.854 333.969 473.606 333.969H476.085C476.837 333.969 477.446 333.36 477.446 332.608C477.446 331.856 476.837 331.247 476.085 331.247Z" fill="white"/>
<path d="M504.441 331.247H501.961C501.21 331.247 500.6 331.856 500.6 332.608C500.6 333.36 501.21 333.969 501.961 333.969H504.441C505.192 333.969 505.802 333.36 505.802 332.608C505.802 331.856 505.192 331.247 504.441 331.247Z" fill="white"/>
<path d="M512.475 331.247H509.995C509.244 331.247 508.634 331.856 508.634 332.608C508.634 333.36 509.244 333.969 509.995 333.969H512.475C513.226 333.969 513.836 333.36 513.836 332.608C513.836 331.856 513.226 331.247 512.475 331.247Z" fill="white"/>
<path d="M496.728 331.02H481.319C480.567 331.02 479.958 331.629 479.958 332.381C479.958 333.133 480.567 333.742 481.319 333.742H496.728C497.48 333.742 498.089 333.133 498.089 332.381C498.089 331.629 497.48 331.02 496.728 331.02Z" fill="white"/>
<path d="M481.756 355.68H479.277C478.525 355.68 477.916 356.29 477.916 357.042C477.916 357.793 478.525 358.403 479.277 358.403H481.756C482.508 358.403 483.117 357.793 483.117 357.042C483.117 356.29 482.508 355.68 481.756 355.68Z" fill="white"/>
<path d="M489.79 355.68H487.311C486.559 355.68 485.95 356.29 485.95 357.042C485.95 357.793 486.559 358.403 487.311 358.403H489.79C490.542 358.403 491.151 357.793 491.151 357.042C491.151 356.29 490.542 355.68 489.79 355.68Z" fill="white"/>
<path d="M511.851 355.907H496.442C495.69 355.907 495.081 356.517 495.081 357.269C495.081 358.02 495.69 358.63 496.442 358.63H511.851C512.603 358.63 513.212 358.02 513.212 357.269C513.212 356.517 512.603 355.907 511.851 355.907Z" fill="white"/>
<path d="M453.401 355.68H450.921C450.17 355.68 449.56 356.29 449.56 357.042C449.56 357.793 450.17 358.403 450.921 358.403H453.401C454.152 358.403 454.762 357.793 454.762 357.042C454.762 356.29 454.152 355.68 453.401 355.68Z" fill="white"/>
<path d="M474.043 355.907H458.634C457.882 355.907 457.273 356.517 457.273 357.269C457.273 358.02 457.882 358.63 458.634 358.63H474.043C474.795 358.63 475.404 358.02 475.404 357.269C475.404 356.517 474.795 355.907 474.043 355.907Z" fill="white"/>
<path d="M460.962 349.536H458.483C457.731 349.536 457.122 350.145 457.122 350.897C457.122 351.649 457.731 352.258 458.483 352.258H460.962C461.714 352.258 462.323 351.649 462.323 350.897C462.323 350.145 461.714 349.536 460.962 349.536Z" fill="white"/>
<path d="M489.318 349.536H486.838C486.087 349.536 485.477 350.145 485.477 350.897C485.477 351.649 486.087 352.258 486.838 352.258H489.318C490.069 352.258 490.679 351.649 490.679 350.897C490.679 350.145 490.069 349.536 489.318 349.536Z" fill="white"/>
<path d="M497.352 349.536H494.872C494.121 349.536 493.511 350.145 493.511 350.897C493.511 351.649 494.121 352.258 494.872 352.258H497.352C498.103 352.258 498.713 351.649 498.713 350.897C498.713 350.145 498.103 349.536 497.352 349.536Z" fill="white"/>
<path d="M481.605 349.763H466.196C465.444 349.763 464.834 350.372 464.834 351.124C464.834 351.876 465.444 352.485 466.196 352.485H481.605C482.357 352.485 482.966 351.876 482.966 351.124C482.966 350.372 482.357 349.763 481.605 349.763Z" fill="white"/>
<path d="M468.524 343.391H466.044C465.293 343.391 464.683 344.001 464.683 344.752C464.683 345.504 465.293 346.114 466.044 346.114H468.524C469.275 346.114 469.885 345.504 469.885 344.752C469.885 344.001 469.275 343.391 468.524 343.391Z" fill="white"/>
<path d="M496.879 343.391H494.4C493.648 343.391 493.039 344.001 493.039 344.752C493.039 345.504 493.648 346.114 494.4 346.114H496.879C497.631 346.114 498.24 345.504 498.24 344.752C498.24 344.001 497.631 343.391 496.879 343.391Z" fill="white"/>
<path d="M504.913 343.391H502.434C501.682 343.391 501.073 344.001 501.073 344.752C501.073 345.504 501.682 346.114 502.434 346.114H504.913C505.665 346.114 506.274 345.504 506.274 344.752C506.274 344.001 505.665 343.391 504.913 343.391Z" fill="white"/>
<path d="M489.166 343.618H473.757C473.005 343.618 472.396 344.228 472.396 344.979C472.396 345.731 473.005 346.341 473.757 346.341H489.166C489.918 346.341 490.527 345.731 490.527 344.979C490.527 344.228 489.918 343.618 489.166 343.618Z" fill="white"/>
<path d="M476.085 337.247H473.606C472.854 337.247 472.245 337.856 472.245 338.608C472.245 339.36 472.854 339.969 473.606 339.969H476.085C476.837 339.969 477.446 339.36 477.446 338.608C477.446 337.856 476.837 337.247 476.085 337.247Z" fill="white"/>
<path d="M504.441 337.247H501.961C501.21 337.247 500.6 337.856 500.6 338.608C500.6 339.36 501.21 339.969 501.961 339.969H504.441C505.192 339.969 505.802 339.36 505.802 338.608C505.802 337.856 505.192 337.247 504.441 337.247Z" fill="white"/>
<path d="M512.475 337.247H509.995C509.244 337.247 508.634 337.856 508.634 338.608C508.634 339.36 509.244 339.969 509.995 339.969H512.475C513.226 339.969 513.836 339.36 513.836 338.608C513.836 337.856 513.226 337.247 512.475 337.247Z" fill="white"/>
<path d="M496.728 337.474H481.319C480.567 337.474 479.958 338.083 479.958 338.835C479.958 339.587 480.567 340.196 481.319 340.196H496.728C497.48 340.196 498.089 339.587 498.089 338.835C498.089 338.083 497.48 337.474 496.728 337.474Z" fill="white"/>
<path d="M440.219 427.692L428.58 409.292L465.113 380.165L480.192 363.457C482.151 361.287 484.646 359.668 487.426 358.764C490.207 357.859 493.176 357.7 496.037 358.303C498.898 358.906 501.55 360.249 503.73 362.198C505.909 364.147 507.539 366.634 508.456 369.411C509.815 373.526 509.523 378.007 507.641 381.911C505.759 385.814 502.434 388.833 498.369 390.331L474.524 399.116L440.219 427.692Z" fill="#FFB6B6"/>
<path d="M167.128 294.278V383.709H229.771V294.278C229.772 293.635 229.567 293.008 229.186 292.49C228.804 291.972 228.267 291.59 227.652 291.401C227.363 291.305 227.059 291.258 226.754 291.261H170.153C169.756 291.26 169.363 291.338 168.996 291.489C168.629 291.64 168.296 291.862 168.015 292.142C167.734 292.423 167.511 292.755 167.359 293.122C167.207 293.488 167.128 293.881 167.128 294.278V294.278ZM191.575 325.007C191.591 323.244 192.303 321.558 193.555 320.318C194.807 319.077 196.499 318.38 198.262 318.38C200.025 318.38 201.716 319.077 202.969 320.318C204.221 321.558 204.933 323.244 204.949 325.007V335.383C204.94 337.151 204.232 338.844 202.978 340.091C201.725 341.338 200.03 342.038 198.262 342.038C196.494 342.038 194.798 341.338 193.545 340.091C192.292 338.844 191.584 337.151 191.575 335.383V325.007Z" fill="#2F2E41"/>
<path d="M166.936 380.849V389.473C166.937 389.919 167.115 390.348 167.43 390.664C167.745 390.981 168.172 391.161 168.619 391.164H228.28C228.727 391.162 229.155 390.983 229.471 390.666C229.786 390.349 229.963 389.92 229.963 389.473V380.849H166.936Z" fill="#3F3D56"/>
<path d="M68.5808 159.539V322.827C68.5825 324.908 69.4097 326.903 70.8809 328.374C72.3521 329.846 74.347 330.673 76.4276 330.675H318.37C320.45 330.673 322.445 329.846 323.917 328.374C325.388 326.903 326.215 324.908 326.217 322.827V159.539C326.212 157.46 325.383 155.468 323.912 153.998C322.442 152.529 320.449 151.703 318.37 151.7H76.4276C74.3488 151.703 72.3558 152.529 70.8851 153.998C69.4143 155.468 68.5858 157.46 68.5808 159.539Z" fill="#3F3D56"/>
<path d="M74.2567 161.571V320.813C74.2586 321.924 74.701 322.99 75.487 323.776C76.2731 324.562 77.3387 325.005 78.4503 325.007H316.356C317.467 325.005 318.533 324.562 319.319 323.776C320.105 322.99 320.548 321.924 320.55 320.813V161.571C320.549 160.458 320.108 159.39 319.322 158.602C318.535 157.814 317.469 157.37 316.356 157.368H78.4503C77.3373 157.37 76.2707 157.814 75.4845 158.602C74.6984 159.39 74.2568 160.458 74.2567 161.571Z" fill="white"/>
<path d="M118.408 390.58C118.65 390.884 118.958 391.129 119.308 391.296C119.658 391.464 120.042 391.55 120.431 391.548H261.969C262.356 391.548 262.738 391.461 263.088 391.294C263.437 391.127 263.745 390.885 263.988 390.584C264.232 390.283 264.406 389.932 264.497 389.556C264.588 389.18 264.594 388.788 264.515 388.409L262.318 377.971C262.227 377.546 262.031 377.149 261.747 376.819C261.464 376.488 261.103 376.234 260.696 376.079C260.402 375.963 260.088 375.904 259.772 375.905H122.619C122.303 375.904 121.989 375.963 121.695 376.079C121.288 376.234 120.927 376.488 120.643 376.819C120.36 377.149 120.164 377.546 120.073 377.971L117.876 388.409C117.798 388.788 117.805 389.179 117.897 389.554C117.989 389.93 118.163 390.28 118.408 390.58Z" fill="#2F2E41"/>
<path d="M308.635 179.304H86.0278C85.7964 179.299 85.5762 179.203 85.4144 179.038C85.2526 178.872 85.162 178.65 85.162 178.419C85.162 178.187 85.2526 177.965 85.4144 177.799C85.5762 177.634 85.7964 177.538 86.0278 177.533H308.635C308.866 177.538 309.087 177.634 309.248 177.799C309.41 177.965 309.501 178.187 309.501 178.419C309.501 178.65 309.41 178.872 309.248 179.038C309.087 179.203 308.866 179.299 308.635 179.304V179.304Z" fill="#3F3D56"/>
<path d="M101.181 173.013C104.046 173.013 106.369 170.638 106.369 167.708C106.369 164.779 104.046 162.404 101.181 162.404C98.3157 162.404 95.993 164.779 95.993 167.708C95.993 170.638 98.3157 173.013 101.181 173.013Z" fill="#3F3D56"/>
<path d="M119.103 173.013C121.968 173.013 124.291 170.638 124.291 167.708C124.291 164.779 121.968 162.404 119.103 162.404C116.238 162.404 113.915 164.779 113.915 167.708C113.915 170.638 116.238 173.013 119.103 173.013Z" fill="#3F3D56"/>
<path d="M137.025 173.013C139.89 173.013 142.213 170.638 142.213 167.708C142.213 164.779 139.89 162.404 137.025 162.404C134.16 162.404 131.837 164.779 131.837 167.708C131.837 170.638 134.16 173.013 137.025 173.013Z" fill="#3F3D56"/>
<path d="M297.843 163.716H285.114C284.862 163.722 284.623 163.826 284.447 164.006C284.271 164.186 284.173 164.428 284.173 164.679C284.173 164.931 284.271 165.173 284.447 165.353C284.623 165.533 284.862 165.637 285.114 165.643H297.843C298.096 165.639 298.338 165.536 298.516 165.356C298.693 165.176 298.793 164.933 298.793 164.679C298.793 164.426 298.693 164.183 298.516 164.003C298.338 163.823 298.096 163.719 297.843 163.716Z" fill="#3F3D56"/>
<path d="M297.843 167.335H285.114C284.862 167.34 284.622 167.444 284.446 167.624C284.27 167.804 284.171 168.046 284.171 168.298C284.171 168.55 284.27 168.792 284.446 168.972C284.622 169.152 284.862 169.256 285.114 169.262H297.843C298.096 169.259 298.339 169.156 298.517 168.975C298.695 168.795 298.795 168.552 298.795 168.298C298.795 168.045 298.695 167.801 298.517 167.621C298.339 167.441 298.096 167.338 297.843 167.335V167.335Z" fill="#3F3D56"/>
<path d="M297.843 170.953H285.114C284.862 170.959 284.623 171.063 284.447 171.243C284.271 171.423 284.173 171.665 284.173 171.917C284.173 172.169 284.271 172.41 284.447 172.59C284.623 172.77 284.862 172.875 285.114 172.88H297.843C298.096 172.877 298.338 172.774 298.516 172.593C298.693 172.413 298.793 172.17 298.793 171.917C298.793 171.664 298.693 171.421 298.516 171.24C298.338 171.06 298.096 170.957 297.843 170.953V170.953Z" fill="#3F3D56"/>
<path d="M604.721 384.634C605.105 385.752 605.834 386.72 606.802 387.399C607.771 388.077 608.93 388.431 610.112 388.41L633.209 387.816C634.4 387.792 635.552 387.384 636.492 386.652C637.432 385.92 638.109 384.904 638.424 383.755L641.692 348.799C642.852 349.325 644.114 349.584 645.387 349.559C646.493 349.531 647.583 349.286 648.594 348.837C649.605 348.388 650.517 347.744 651.28 346.943C652.042 346.141 652.639 345.197 653.036 344.164C653.434 343.132 653.624 342.031 653.597 340.925C653.569 339.819 653.323 338.73 652.875 337.719C652.426 336.707 651.782 335.795 650.981 335.032C650.179 334.27 649.235 333.673 648.203 333.275C647.171 332.878 646.07 332.687 644.964 332.715C644.456 332.713 643.948 332.766 643.451 332.872C642.91 332.287 642.252 331.821 641.52 331.505C640.788 331.19 639.998 331.031 639.201 331.039L603.672 331.956C603.378 331.967 603.084 332.003 602.796 332.065C602.017 332.21 601.278 332.521 600.629 332.976C599.98 333.431 599.435 334.019 599.033 334.702C598.63 335.385 598.379 336.146 598.295 336.934C598.211 337.722 598.297 338.519 598.547 339.272L604.721 384.634ZM642.363 346.426L644.688 338.096C644.953 337.134 644.959 336.119 644.706 335.154C644.819 335.153 644.919 335.1 645.031 335.099C646.626 335.066 648.169 335.667 649.321 336.77C650.474 337.873 651.142 339.388 651.179 340.983C651.217 342.578 650.62 344.122 649.521 345.278C648.421 346.434 646.908 347.106 645.313 347.148C644.283 347.18 643.262 346.93 642.363 346.426Z" fill="#2F2E41"/>
<path d="M602.796 332.065C603.553 336.394 612.063 339.437 622.296 338.908C631.706 338.474 639.4 335.169 640.809 331.253C640.288 331.099 639.745 331.026 639.201 331.039L603.672 331.956C603.378 331.967 603.084 332.003 602.796 332.065V332.065Z" fill="#3F3D56"/>
<path d="M624.171 365.425C624.218 365.413 624.262 365.394 624.303 365.367L629.319 362.084C629.379 362.044 629.429 361.99 629.464 361.927C629.498 361.863 629.516 361.792 629.516 361.719C629.516 361.647 629.498 361.576 629.464 361.512C629.429 361.448 629.38 361.394 629.319 361.355L624.106 357.939C624.058 357.908 624.004 357.886 623.948 357.875C623.891 357.864 623.833 357.864 623.777 357.876C623.721 357.887 623.668 357.91 623.62 357.942C623.573 357.975 623.532 358.016 623.501 358.064C623.469 358.112 623.448 358.166 623.437 358.222C623.426 358.278 623.427 358.336 623.439 358.392C623.451 358.449 623.473 358.502 623.506 358.549C623.538 358.596 623.58 358.637 623.628 358.668L628.284 361.719L623.826 364.638C623.739 364.694 623.676 364.78 623.646 364.878C623.617 364.977 623.624 365.083 623.665 365.178C623.707 365.272 623.78 365.349 623.873 365.394C623.966 365.44 624.071 365.451 624.171 365.425H624.171Z" fill="#6C63FF"/>
<path d="M616.249 365.791C616.333 365.769 616.409 365.723 616.467 365.659C616.525 365.594 616.562 365.513 616.574 365.427C616.586 365.341 616.571 365.254 616.533 365.176C616.495 365.098 616.434 365.033 616.359 364.99L611.735 362.339L616.204 359.019C616.25 358.985 616.289 358.942 616.318 358.893C616.347 358.844 616.367 358.789 616.375 358.733C616.384 358.676 616.381 358.618 616.367 358.563C616.353 358.507 616.328 358.455 616.294 358.409C616.26 358.363 616.217 358.325 616.168 358.295C616.119 358.266 616.064 358.246 616.008 358.238C615.951 358.23 615.893 358.233 615.838 358.247C615.783 358.261 615.73 358.285 615.684 358.319L610.681 362.036C610.623 362.08 610.576 362.136 610.546 362.202C610.515 362.268 610.501 362.34 610.506 362.412C610.51 362.484 610.532 362.554 610.57 362.616C610.608 362.677 610.661 362.728 610.724 362.764L615.925 365.746C616.023 365.803 616.139 365.819 616.249 365.791V365.791Z" fill="#6C63FF"/>
<path d="M623.672 368.303C623.715 368.292 623.755 368.275 623.792 368.252C623.841 368.223 623.883 368.184 623.917 368.137C623.951 368.091 623.975 368.039 623.989 367.983C624.003 367.927 624.005 367.87 623.996 367.813C623.987 367.756 623.968 367.702 623.938 367.653L616.827 355.961C616.767 355.863 616.67 355.792 616.558 355.765C616.445 355.738 616.327 355.756 616.228 355.816C616.13 355.877 616.059 355.973 616.032 356.086C616.004 356.198 616.022 356.316 616.082 356.415L623.193 368.107C623.241 368.187 623.314 368.249 623.4 368.284C623.487 368.319 623.582 368.326 623.672 368.303Z" fill="#6C63FF"/>
<path d="M223.929 227.437H185.401C183.829 227.437 182.555 228.712 182.555 230.284V234.048C182.555 235.62 183.829 236.895 185.401 236.895H223.929C225.501 236.895 226.775 235.62 226.775 234.048V230.284C226.775 228.712 225.501 227.437 223.929 227.437Z" fill="#6C63FF"/>
<path d="M246.387 246.352H162.943C161.371 246.352 160.097 247.626 160.097 249.198V252.963C160.097 254.535 161.371 255.809 162.943 255.809H246.387C247.959 255.809 249.233 254.535 249.233 252.963V249.198C249.233 247.626 247.959 246.352 246.387 246.352Z" fill="#E6E6E6"/>
<path d="M246.387 265.266H162.943C161.371 265.266 160.097 266.541 160.097 268.113V271.877C160.097 273.449 161.371 274.724 162.943 274.724H246.387C247.959 274.724 249.233 273.449 249.233 271.877V268.113C249.233 266.541 247.959 265.266 246.387 265.266Z" fill="#E6E6E6"/>
<path d="M322 267L315.5 289L356 290L351 271L322 267Z" fill="#FFB6B6"/>
<path d="M253.461 328.604L253.65 329.201L253.66 329.221L259.349 346.519L265.893 366.453L278.206 403.915L278.325 409.734V409.754L279.24 456.566L276.704 462.912L279.559 473.317C279.559 473.317 278.246 457.589 271.204 466.622C267.216 471.754 262.551 477.007 258.722 481.93C264.302 484.189 269.971 486.231 275.73 488.058C276.973 488.456 278.226 488.834 279.479 489.212C279.748 489.291 280.016 489.371 280.285 489.451C299.374 495.097 319.109 498.269 339.006 498.891C340.04 498.921 341.055 498.94 342.039 498.96C342.387 498.97 342.725 498.98 343.064 498.98C344.178 498.99 345.282 499 346.395 499C348.643 499 350.881 498.967 353.109 498.901C369.599 498.436 385.992 496.218 402.013 492.286C401.904 485.671 401.605 477.942 401.178 469.685C400.979 465.637 396.513 461.25 396.244 457.012C396.056 453.829 400.064 450.835 399.855 447.602C398.502 427.698 396.811 435.339 395.558 421.243C395.429 419.86 395.31 418.538 395.2 417.274C394.395 408.222 393.838 402.562 393.838 402.562L399.189 368.831L407.593 315.871L406.946 314.807L406.22 314.449L361.891 292.505L359.484 286.338C358.783 284.561 357.566 283.035 355.991 281.955C354.415 280.875 352.552 280.292 350.642 280.28L321.441 280.16C319.926 280.154 318.43 280.508 317.08 281.195C315.729 281.882 314.561 282.881 313.673 284.11L305.766 295.061L280 311.5L253.461 328.604Z" fill="#FF2E00"/>
<path d="M284.94 395.579L278.325 409.734L273.81 419.403L266.042 460.078L262.153 464.206L258.822 449.592L223.949 457.336C222.805 450.979 223.643 457.551 222.937 450.578C223.136 450.379 223.344 450.18 223.553 449.981C224.11 449.464 224.578 448.976 224.568 448.509C224.17 424.456 225.363 383.523 235.329 358.724C236.89 354.675 238.948 350.836 241.456 347.295C241.655 347.026 241.844 346.758 242.033 346.489C246.628 340.053 248.882 332.506 253 328L280 311.5L283.259 348.2L284.124 372.71L284.94 395.579Z" fill="#FF441B"/>
<path d="M386.934 399.6L395.196 417.279L398.08 423.436L405.845 464.107L409.722 468.225L413.061 453.615L414.63 453.293L442.93 447.431L451.178 473.631C453.037 470.533 453.769 466.888 453.251 463.312C452.733 459.736 450.996 456.449 448.335 454.006C447.771 453.496 447.302 453 447.315 452.531C447.785 424.241 446.055 372.584 430.43 351.323C425.467 344.576 422.49 337.855 418.158 333.161C418.144 333.147 418.144 333.134 418.131 333.134L407.589 315.87L406.945 314.81L406.221 314.448L386.934 399.6Z" fill="#FF441B"/>
<path d="M336.885 271.849C358.341 271.849 375.734 254.453 375.734 232.995C375.734 211.536 358.341 194.141 336.885 194.141C315.43 194.141 298.036 211.536 298.036 232.995C298.036 254.453 315.43 271.849 336.885 271.849Z" fill="#FFB6B6"/>
<path d="M389.394 205.855C389.093 205.534 388.73 205.276 388.327 205.098C387.924 204.919 387.489 204.824 387.049 204.818L387.633 203.196C387.823 202.685 387.875 202.133 387.782 201.595C387.689 201.058 387.455 200.555 387.103 200.138C386.752 199.721 386.296 199.405 385.783 199.222C385.269 199.039 384.716 198.996 384.18 199.097L382.053 199.507L382.253 198.086C382.33 197.557 382.268 197.016 382.073 196.518C381.878 196.02 381.556 195.582 381.14 195.246C380.724 194.909 380.228 194.687 379.7 194.601C379.172 194.515 378.631 194.568 378.129 194.755C377.673 194.934 377.183 195.01 376.694 194.975C376.205 194.94 375.731 194.797 375.305 194.554C374.877 194.32 374.505 193.994 374.216 193.601C373.927 193.208 373.727 192.757 373.631 192.279L372.889 188.703L372.811 188.512C369.201 182.495 362.261 178.117 353.77 176.513C346.21 175.074 338.46 175.807 330.988 176.496C328.023 176.775 324.675 177.089 321.885 178.798C319.514 180.263 317.509 183.192 317.918 186.148C310.551 183.89 302.652 188.398 298.737 194.083C294.099 200.85 293.341 209.326 293.219 215.953C292.887 231.631 296.122 244.458 302.809 254.085C303.297 254.782 303.419 256.239 304.387 256.727L304.187 256.404C305.268 256.945 306.366 257.817 305.956 258.75C304.779 261.436 312.6 267.374 318.11 269.336C328.163 272.92 341.601 272.291 351 271L351.259 269.1C354.65 268.638 357.039 267.757 357.71 266.38C358.896 265.368 359.907 264.461 360.788 263.624L360.797 263.616C360.814 263.598 360.849 263.572 360.866 263.555C365.112 259.482 366.098 257.163 366.542 253.631C366.97 250.17 366.211 246.656 365.435 243.49C381.774 246.019 359.001 226.085 374.223 222.231C374.398 222.177 374.576 222.134 374.755 222.1C375.2 221.996 375.645 221.891 376.072 221.769C378.131 221.21 380.103 220.368 381.931 219.266C386.185 216.677 387.589 213.241 389.786 209.369C390.103 208.818 390.236 208.18 390.166 207.548C390.095 206.916 389.825 206.323 389.394 205.855Z" fill="#2F2E41"/>
<path d="M474.287 402.366C474.279 403.892 474.261 406.028 474.191 408.67C474.183 409.036 474.174 409.411 474.165 409.795C474.052 414.652 473.939 418.724 473.755 423.25C473.747 423.564 473.738 423.869 473.721 424.183C473.476 430.496 473.093 437.847 472.43 449.488C471.201 470.991 469.056 452.444 466.903 459.987C466.798 460.362 466.685 460.806 466.58 461.329C466.254 463.228 465.704 465.081 464.941 466.849C463.799 467.529 462.622 468.183 461.462 468.837C458.158 470.677 454.801 472.447 451.418 474.13C449.518 475.072 447.608 475.996 445.69 476.886C445.385 477.025 445.089 477.165 444.792 477.295C434.97 481.839 424.847 485.703 414.495 488.858C412.472 489.468 410.458 490.061 408.418 490.611C406.291 491.204 404.163 491.762 402.01 492.285C385.989 496.218 369.596 498.437 353.107 498.903C350.884 498.973 348.643 498.999 346.394 498.999C345.278 498.999 344.179 498.99 343.063 498.982C342.723 498.982 342.383 498.973 342.043 498.964C341.058 498.938 340.038 498.921 339.009 498.895C319.112 498.274 299.377 495.1 280.289 489.451L279.478 489.215C278.223 488.832 276.976 488.457 275.729 488.056C269.975 486.233 264.305 484.193 258.719 481.934C254.455 480.217 250.241 478.374 246.077 476.406C246.039 476.396 246.003 476.378 245.972 476.354C245.1 475.953 244.22 475.534 243.348 475.107C243.235 475.046 243.113 474.985 242.991 474.924C239.738 473.337 236.521 471.674 233.339 469.936C230.662 463.788 226.896 462.611 224.559 457.205C223.879 455.599 223.388 453.919 223.095 452.2C223.095 452.182 223.086 452.165 223.086 452.139C223.33 455.382 222.048 446.384 223.077 452.104C223.068 451.999 223.06 451.886 223.051 451.755C223.025 451.441 222.99 451.057 222.938 450.578C219.947 421.375 220.139 387.978 218.84 360.458C218.753 358.679 218.663 356.976 218.57 355.348C218.543 354.808 218.509 354.276 218.474 353.753C218.535 353.596 218.604 353.43 218.683 353.273C218.7 353.228 218.72 353.184 218.744 353.142C218.77 353.088 218.799 353.036 218.831 352.985C218.849 352.959 218.875 352.924 218.892 352.898C218.905 352.868 218.919 352.839 218.936 352.811C219.014 352.689 219.101 352.558 219.197 352.436C219.241 352.384 219.276 352.34 219.319 352.296C219.35 352.252 219.385 352.211 219.424 352.174C219.451 352.132 219.483 352.094 219.52 352.061C219.555 352.026 219.59 351.983 219.633 351.939C219.652 351.912 219.676 351.888 219.703 351.869C219.772 351.79 219.848 351.717 219.93 351.651C220.241 351.365 220.573 351.103 220.924 350.866C221.046 350.788 221.176 350.709 221.299 350.622C222.177 350.097 223.102 349.653 224.062 349.297C224.394 349.175 224.725 349.061 225.082 348.939C225.213 348.904 225.335 348.861 225.466 348.817C225.658 348.756 225.85 348.695 226.05 348.652C227.044 348.355 228.116 348.102 229.276 347.867C229.416 347.841 229.564 347.814 229.712 347.78C229.921 347.736 230.139 347.701 230.357 347.666C230.654 347.614 230.959 347.562 231.264 347.509C233.853 347.099 236.792 346.794 240.035 346.594C240.34 346.576 240.645 346.559 240.95 346.541C241.308 346.524 241.665 346.507 242.031 346.489C242.337 346.472 242.65 346.463 242.964 346.454C243.27 346.437 243.583 346.428 243.906 346.419C244.787 346.393 245.693 346.367 246.617 346.35C249.25 346.297 252.023 346.315 254.935 346.376C256.286 346.411 257.664 346.445 259.076 346.506C259.172 346.506 259.259 346.515 259.347 346.515C260.576 346.559 261.814 346.611 263.087 346.681C263.976 346.725 264.874 346.768 265.772 346.82C266.618 346.873 267.472 346.925 268.336 346.986C269.007 347.021 269.678 347.073 270.358 347.117C270.934 347.16 271.509 347.204 272.085 347.239L272.869 347.291C273.296 347.326 273.724 347.352 274.16 347.396C275.119 347.474 276.078 347.553 277.054 347.631C278.022 347.719 279.007 347.806 279.992 347.893C280.978 347.98 281.971 348.076 282.965 348.172C283.07 348.181 283.166 348.189 283.262 348.198C284.169 348.294 285.075 348.381 285.991 348.477C286.2 348.495 286.418 348.512 286.627 348.538C287.5 348.626 288.39 348.729 289.271 348.822C289.541 348.851 289.81 348.88 290.081 348.909C290.771 348.984 291.451 349.05 292.146 349.131C293.062 349.236 293.995 349.332 294.901 349.454C295.607 349.532 296.314 349.611 297.02 349.698C298.127 349.829 299.252 349.968 300.376 350.117C300.804 350.169 301.231 350.221 301.658 350.282C304.867 350.683 308.11 351.128 311.406 351.59C316.401 352.296 321.476 353.064 326.585 353.892C331.703 354.721 336.85 355.596 342.025 356.517C343.333 356.752 344.641 356.988 345.958 357.232C346.55 357.345 347.143 357.459 347.736 357.572C348.747 357.755 349.759 357.947 350.77 358.139C351.782 358.331 352.793 358.522 353.804 358.723C355.007 358.958 356.219 359.194 357.423 359.429C365.348 360.999 373.229 362.673 380.919 364.426C382.183 364.713 383.448 365.01 384.703 365.298C387.214 365.882 389.702 366.475 392.166 367.077C392.846 367.234 393.518 367.399 394.189 367.565C395.863 367.983 397.537 368.402 399.185 368.829L399.473 368.908C400.684 369.204 401.87 369.509 403.056 369.823C405.855 370.556 408.607 371.297 411.312 372.047C413.108 372.544 414.884 373.047 416.64 373.555C419.264 374.314 421.836 375.081 424.338 375.857C424.957 376.049 425.576 376.241 426.186 376.424C428.017 376.991 429.822 377.567 431.575 378.142C432.97 378.596 434.33 379.058 435.672 379.52C437.015 379.982 438.332 380.444 439.622 380.906C440.45 381.203 441.27 381.517 442.089 381.813C443.266 382.249 444.426 382.685 445.559 383.121C445.908 383.252 446.248 383.391 446.588 383.522C446.806 383.618 447.015 383.697 447.225 383.784C447.634 383.949 448.053 384.106 448.454 384.272C448.864 384.429 449.265 384.595 449.666 384.769C450.058 384.926 450.459 385.092 450.843 385.257C451.235 385.414 451.619 385.58 452.002 385.754C452.325 385.885 452.639 386.025 452.944 386.164C453.563 386.435 454.182 386.705 454.784 386.984C455.08 387.124 455.376 387.254 455.673 387.394L456.353 387.708C456.449 387.76 456.545 387.804 456.641 387.847C456.859 387.952 457.085 388.065 457.303 388.17C457.809 388.405 458.306 388.658 458.794 388.894C459.448 389.225 460.085 389.556 460.695 389.879C461.314 390.21 461.915 390.542 462.491 390.864C462.587 390.917 462.674 390.969 462.77 391.021C462.901 391.091 463.031 391.17 463.162 391.239C463.607 391.492 464.034 391.754 464.461 392.007C465.298 392.521 466.092 393.027 466.833 393.533C466.998 393.646 467.155 393.759 467.321 393.864C467.87 394.256 468.393 394.64 468.882 395.032C468.882 395.041 468.882 395.041 468.89 395.041C469.056 395.163 469.213 395.294 469.37 395.416C469.501 395.538 469.64 395.643 469.771 395.765C470.224 396.157 470.643 396.532 471.026 396.916C471.155 397.034 471.277 397.159 471.393 397.291C471.443 397.333 471.49 397.38 471.532 397.43C471.706 397.605 471.863 397.779 472.012 397.953C472.035 397.977 472.055 398.004 472.073 398.032C472.282 398.276 472.474 398.52 472.657 398.764C472.744 398.887 472.84 399.009 472.918 399.131C473.023 399.279 473.128 399.436 473.215 399.584C473.293 399.706 473.363 399.837 473.433 399.959C473.618 400.273 473.775 400.603 473.904 400.944C474.002 401.176 474.08 401.415 474.139 401.659C474.205 401.891 474.255 402.127 474.287 402.366V402.366Z" fill="#2F2E41"/>
<path opacity="0.2" d="M474.287 402.366C474.279 403.892 474.261 406.028 474.191 408.67C474.183 409.036 474.165 409.411 474.156 409.795C474.069 413.501 473.939 418.079 473.755 423.25C473.747 423.564 473.738 423.869 473.721 424.183C473.476 430.496 473.093 437.847 472.43 449.488C471.201 470.991 469.056 452.444 466.903 459.987C460.922 456.307 454.365 452.453 447.355 448.494C446.091 447.779 444.815 447.061 443.528 446.34C429.508 438.518 413.85 430.322 397.502 422.203C396.857 421.881 396.203 421.558 395.558 421.244C358.111 402.732 317.238 384.726 284.125 372.71C277.734 370.39 271.631 368.297 265.894 366.457C253.81 362.595 243.365 359.891 235.327 358.723C226.957 357.502 221.176 357.938 218.84 360.458C218.753 358.679 218.663 356.976 218.57 355.348C218.535 354.808 218.5 354.276 218.465 353.753C218.519 353.609 218.589 353.472 218.656 353.334C218.666 353.314 218.673 353.293 218.683 353.273C218.7 353.228 218.72 353.184 218.744 353.142C218.77 353.088 218.799 353.036 218.831 352.985C218.859 352.923 218.895 352.865 218.936 352.811C219.014 352.689 219.101 352.558 219.197 352.436C219.268 352.344 219.344 352.257 219.424 352.174C219.451 352.132 219.483 352.094 219.52 352.061C219.555 352.026 219.59 351.982 219.633 351.939C219.652 351.911 219.676 351.888 219.703 351.869C219.772 351.79 219.848 351.717 219.93 351.651C220.241 351.365 220.573 351.103 220.924 350.866C221.046 350.788 221.176 350.709 221.298 350.622C222.177 350.096 223.102 349.653 224.062 349.297C224.394 349.175 224.725 349.061 225.082 348.939C225.213 348.904 225.335 348.861 225.466 348.817C225.658 348.756 225.85 348.695 226.05 348.652C227.044 348.355 228.116 348.102 229.276 347.867C229.625 347.797 229.991 347.727 230.357 347.666C230.654 347.614 230.959 347.562 231.264 347.509C233.853 347.099 236.792 346.794 240.035 346.594C240.34 346.576 240.645 346.559 240.95 346.541C241.308 346.524 241.665 346.506 242.031 346.489C242.337 346.472 242.65 346.463 242.964 346.454C243.269 346.437 243.583 346.428 243.906 346.419C244.787 346.393 245.693 346.367 246.617 346.349C249.25 346.306 252.023 346.323 254.935 346.384C256.286 346.411 257.664 346.454 259.076 346.515C259.164 346.515 259.259 346.524 259.347 346.524C260.576 346.559 261.823 346.62 263.087 346.681C263.976 346.724 264.874 346.768 265.772 346.82C266.618 346.873 267.472 346.925 268.336 346.986C269.007 347.021 269.678 347.073 270.358 347.117C270.934 347.16 271.509 347.204 272.085 347.239C272.773 347.291 273.462 347.344 274.16 347.396C275.119 347.474 276.078 347.553 277.054 347.631C278.022 347.718 279.007 347.806 279.992 347.893C280.978 347.98 281.971 348.076 282.965 348.172C283.07 348.181 283.166 348.189 283.262 348.198C284.169 348.294 285.075 348.381 285.991 348.477C291.065 348.992 296.287 349.593 301.658 350.282C304.867 350.692 308.116 351.131 311.406 351.599C316.401 352.305 321.476 353.072 326.585 353.892C331.703 354.721 336.85 355.595 342.025 356.517C343.333 356.752 344.641 356.988 345.958 357.232C347.562 357.528 349.166 357.831 350.77 358.139C351.782 358.331 352.793 358.522 353.804 358.723C355.008 358.958 356.219 359.194 357.423 359.429C365.348 360.999 373.229 362.673 380.919 364.426C382.184 364.713 383.448 365.01 384.703 365.298C387.214 365.882 389.702 366.475 392.166 367.077C392.846 367.242 393.518 367.408 394.189 367.574C395.872 367.992 397.537 368.411 399.185 368.829V368.838C399.281 368.855 399.377 368.882 399.473 368.908C400.676 369.213 401.87 369.518 403.056 369.832C405.855 370.564 408.607 371.303 411.312 372.047C413.109 372.553 414.887 373.05 416.64 373.555C419.264 374.323 421.836 375.09 424.338 375.857C424.957 376.049 425.576 376.241 426.186 376.424C428.017 377 429.813 377.572 431.575 378.142C432.97 378.595 434.33 379.058 435.672 379.52C437.015 379.982 438.332 380.444 439.622 380.906C440.459 381.203 441.278 381.508 442.089 381.804C443.275 382.24 444.426 382.676 445.559 383.121C445.908 383.252 446.248 383.391 446.588 383.522C447.225 383.766 447.844 384.019 448.454 384.272C448.864 384.429 449.265 384.595 449.666 384.769C450.058 384.926 450.459 385.092 450.843 385.257C451.235 385.414 451.619 385.58 452.002 385.754C452.325 385.885 452.639 386.025 452.944 386.164C453.563 386.435 454.182 386.705 454.784 386.984C455.08 387.123 455.377 387.254 455.673 387.394L456.353 387.708C456.449 387.76 456.545 387.804 456.641 387.847C457.382 388.196 458.097 388.545 458.794 388.894C459.448 389.225 460.085 389.556 460.695 389.879C461.419 390.263 462.107 390.638 462.77 391.021C462.901 391.091 463.031 391.169 463.162 391.239C463.607 391.492 464.034 391.754 464.461 392.007C465.298 392.521 466.092 393.027 466.833 393.533C467.565 394.038 468.245 394.535 468.882 395.032C468.882 395.041 468.882 395.041 468.89 395.041C469.196 395.285 469.492 395.529 469.771 395.765C470.224 396.157 470.643 396.532 471.026 396.916C471.155 397.034 471.277 397.159 471.393 397.291C471.443 397.333 471.49 397.38 471.532 397.43C471.715 397.631 471.898 397.831 472.073 398.032C472.282 398.276 472.474 398.52 472.657 398.764C472.744 398.886 472.84 399.009 472.918 399.131C473.023 399.279 473.128 399.436 473.215 399.584C473.293 399.706 473.363 399.837 473.433 399.959C473.618 400.273 473.775 400.603 473.904 400.944C473.999 401.177 474.078 401.416 474.139 401.659C474.205 401.891 474.255 402.127 474.287 402.366V402.366Z" fill="black"/>
</g>
<defs>
<clipPath id="clip0_1_19">
<rect width="686" height="499" fill="white"/>
</clipPath>
</defs>
</svg>
